<svg id="colorsSVG" viewBox="0 0 200 150" fill="none" width="1200px" height="900px">
<desc>Red, green and blue lines representing a computer screen.</desc>
<rect id="colorsBG" fill="#000" x="0" y="0" width="200" height="150" />
<path id="colorsPathRd" stroke="#f00" stroke-width="2" d="M 0 0V150M 6 0V150M 12 0V150M 18 0V150M 24 0V150M 30 0V150M 36 0V150M 42 0V150M 48 0V150M 54 0V150M 60 0V150M 66 0V150M 72 0V150M 78 0V150M 84 0V150M 90 0V150M 96 0V150M 102 0V150M 108 0V150M 114 0V150M 120 0V150M 126 0V150M 132 0V150M 138 0V150M 144 0V150M 150 0V150M 156 0V150M 162 0V150M 168 0V150M 174 0V150M 180 0V150M 186 0V150M 192 0V150M 198 0V150" />
<path id="colorsPathGn" stroke="#0f0" stroke-width="2" d="M 2 0V150M 8 0V150M 14 0V150M 20 0V150M 26 0V150M 32 0V150M 38 0V150M 44 0V150M 50 0V150M 56 0V150M 62 0V150M 68 0V150M 74 0V150M 80 0V150M 86 0V150M 92 0V150M 98 0V150M 104 0V150M 110 0V150M 116 0V150M 122 0V150M 128 0V150M 134 0V150M 140 0V150M 146 0V150M 152 0V150M 158 0V150M 164 0V150M 170 0V150M 176 0V150M 182 0V150M 188 0V150M 194 0V150M 200 0V150" />
<path id="colorsPathBl" stroke="#00f" stroke-width="2" d="M 4 0V150M 10 0V150M 16 0V150M 22 0V150M 28 0V150M 34 0V150M 40 0V150M 46 0V150M 52 0V150M 58 0V150M 64 0V150M 70 0V150M 76 0V150M 82 0V150M 88 0V150M 94 0V150M 100 0V150M 106 0V150M 112 0V150M 118 0V150M 124 0V150M 130 0V150M 136 0V150M 142 0V150M 148 0V150M 154 0V150M 160 0V150M 166 0V150M 172 0V150M 178 0V150M 184 0V150M 190 0V150M 196 0V150" />
</svg>
